<svg xmlns="http://www.w3.org/2000/svg" viewBox="0 0 1440 320"><path fill="#0099ff" fill-opacity="1" d="M0,224L24,208C48,192,96,160,144,154.7C192,149,240,171,288,197.3C336,224,384,256,432,277.3C480,299,528,309,576,266.7C624,224,672,128,720,122.7C768,117,816,203,864,229.3C912,256,960,224,1008,202.7C1056,181,1104,171,1152,138.7C1200,107,1248,53,1296,69.3C1344,85,1392,171,1416,213.3L1440,256L1440,0L1416,0C1392,0,1344,0,1296,0C1248,0,1200,0,1152,0C1104,0,1056,0,1008,0C960,0,912,0,864,0C816,0,768,0,720,0C672,0,624,0,576,0C528,0,480,0,432,0C384,0,336,0,288,0C240,0,192,0,144,0C96,0,48,0,24,0L0,0Z"></path></svg>